<?xml version="1.0"?>
<svg xmlns="http://www.w3.org/2000/svg" viewBox="0 0 64 64" width="512px" height="512px" class=""><g><g id="data_transfer" data-name="data transfer"><path d="M13,31h2a5.006,5.006,0,0,1,5-5V24A7.008,7.008,0,0,0,13,31Z" data-original="#000000" class="active-path" data-old_color="#000000" fill="#2FCCE0"/><path d="M59,32H55V31a.981.981,0,0,0-.38-.77,13.99,13.99,0,0,0-27.03-7.19A11,11,0,0,0,9.42,34.02,8,8,0,0,0,10,50H30v1a3.009,3.009,0,0,0,3,3h9.72l-.5,2H39.6a.992.992,0,0,0-.94.66l-1.47,4A1,1,0,0,0,38.13,62H53.87a1,1,0,0,0,.94-1.34l-1.47-4A.992.992,0,0,0,52.4,56H49.78l-.5-2H59a3.009,3.009,0,0,0,3-3V35A3.009,3.009,0,0,0,59,32ZM30,35V48H10a6,6,0,0,1,0-12h.84a1.013,1.013,0,0,0,.84-.45,1.034,1.034,0,0,0,.08-.95A8.747,8.747,0,0,1,11,31a9,9,0,0,1,16.33-5.22.991.991,0,0,0,1.05.39,1,1,0,0,0,.75-.83A11.992,11.992,0,0,1,53,27c0,.09-.01.17-.01.26l-2.04-2.04a1.014,1.014,0,0,0-.13-.09A10.021,10.021,0,0,0,41,17v2a8,8,0,0,1,7.46,5.13A.91.91,0,0,0,48,24H44a1,1,0,0,0-.97.76l-.17.67-.59-.36a1.014,1.014,0,0,0-1.22.15l-2.83,2.83a1,1,0,0,0-.15,1.22l.36.59-.67.17A1,1,0,0,0,37,31v1H33A3.009,3.009,0,0,0,30,35Zm21.16,1.01.65,1.08-1.72,1.72-1.08-.65a1.019,1.019,0,0,0-.9-.06,1.007,1.007,0,0,0-.59.68L47.22,40H44.78l-.3-1.22a1.007,1.007,0,0,0-.59-.68,1.019,1.019,0,0,0-.9.06l-1.08.65-1.72-1.72.65-1.08a1.019,1.019,0,0,0,.06-.9,1.007,1.007,0,0,0-.68-.59L39,34.22V31.78l1.22-.3a1.007,1.007,0,0,0,.68-.59,1.019,1.019,0,0,0-.06-.9l-.65-1.08,1.72-1.72,1.08.64a.989.989,0,0,0,.9.07,1.007,1.007,0,0,0,.59-.68l.3-1.22h2.44l.3,1.22a1.007,1.007,0,0,0,.59.68.989.989,0,0,0,.9-.07l1.08-.64,1.72,1.72-.65,1.08a1.019,1.019,0,0,0-.06.9,1.007,1.007,0,0,0,.68.59l1.22.3v2.44l-1.22.3a1.007,1.007,0,0,0-.68.59A1.019,1.019,0,0,0,51.16,36.01ZM51.7,58l.74,2H39.56l.74-2Zm-7.42-2,.5-2h2.44l.5,2ZM60,51a1,1,0,0,1-1,1H33a1,1,0,0,1-1-1V50H60Zm0-3H32V35a1,1,0,0,1,1-1h4v1a1,1,0,0,0,.76.97l.67.17-.36.59a1,1,0,0,0,.15,1.22l2.83,2.83a1,1,0,0,0,1.22.15l.59-.36.17.67A1,1,0,0,0,44,42h4a1,1,0,0,0,.97-.76l.17-.67.59.36a1,1,0,0,0,1.22-.15l2.83-2.83a1,1,0,0,0,.15-1.22l-.36-.59.67-.17A1,1,0,0,0,55,35V34h4a1,1,0,0,1,1,1Z" data-original="#000000" class="active-path" data-old_color="#000000" fill="#2FCCE0"/><path d="M46,37a4,4,0,1,0-4-4A4,4,0,0,0,46,37Zm0-6a2,2,0,1,1-2,2A2,2,0,0,1,46,31Z" data-original="#000000" class="active-path" data-old_color="#000000" fill="#2FCCE0"/><path d="M8,2C5.11,2,2,2.94,2,5V17c0,2.06,3.11,3,6,3s6-.94,6-3V5C14,2.94,10.89,2,8,2ZM8,4c2.35,0,3.72.67,3.98,1-.26.33-1.63,1-3.98,1S4.28,5.33,4.02,5C4.28,4.67,5.65,4,8,4ZM4,7.31A11.044,11.044,0,0,0,8,8a10.834,10.834,0,0,0,4-.7V8.95C11.85,9.26,10.47,10,8,10S4.13,9.25,4,9Zm8.01,9.64C11.87,17.25,10.48,18,8,18s-3.87-.75-4-1V15.31A11.044,11.044,0,0,0,8,16a10.888,10.888,0,0,0,4.01-.7ZM8,14c-2.48,0-3.87-.75-4-1V11.31A11.044,11.044,0,0,0,8,12a10.8,10.8,0,0,0,4-.7l.01,1.65C11.86,13.25,10.48,14,8,14Z" data-original="#000000" class="active-path" data-old_color="#000000" fill="#2FCCE0"/><rect x="16" y="11" width="2" height="2" data-original="#000000" class="active-path" data-old_color="#000000" fill="#2FCCE0"/><rect x="16" y="7" width="2" height="2" data-original="#000000" class="active-path" data-old_color="#000000" fill="#2FCCE0"/><path d="M26,18h2V12a1,1,0,0,0-1-1H20v2h6Z" data-original="#000000" class="active-path" data-old_color="#000000" fill="#2FCCE0"/><path d="M57,8V20H55V9H20V7H56A1,1,0,0,1,57,8Z" data-original="#000000" class="active-path" data-old_color="#000000" fill="#2FCCE0"/></g></g> </svg>
