<?xml version="1.0"?>
<svg xmlns="http://www.w3.org/2000/svg" id="Capa_1" enable-background="new 0 0 512.381 512.381" height="512px" viewBox="0 0 512.381 512.381" width="512px"><g><g><path d="m461.296 306.315h-80.861c6.132-15.469 9.421-32.118 9.421-49.125 0-42.719-20.685-83.208-55.332-108.307-3.354-2.431-8.044-1.681-10.474 1.674-2.43 3.354-1.681 8.043 1.674 10.474 30.765 22.287 49.132 58.235 49.132 96.16 0 17.14-3.763 33.871-10.715 49.125h-29.36c8.941-14.253 14.12-31.094 14.12-49.125 0-3.482-.197-6.995-.586-10.44-.518-4.595-2.808-8.714-6.448-11.6-3.684-2.92-8.494-4.279-13.198-3.718-1.54.182-3.117.212-4.685.086-11.651-.924-21.092-10.813-21.495-22.513-.138-4.013.701-7.841 2.492-11.379 2.113-4.174 2.449-8.938.946-13.413-1.515-4.509-4.837-8.293-9.116-10.382-12.296-6.002-25.509-9.145-39.271-9.341-3.95-.055-8.055.165-12.211.659-4.113.489-7.051 4.22-6.563 8.333.489 4.113 4.221 7.049 8.333 6.563 3.5-.416 6.939-.596 10.226-.556 11.539.165 22.61 2.797 32.906 7.823.694.339 1.232.951 1.477 1.679.152.451.256 1.141-.109 1.862-2.905 5.738-4.322 12.193-4.1 18.669.671 19.522 15.847 35.407 35.298 36.951 2.55.202 5.119.154 7.637-.144 1.052-.124 1.776.308 2.116.577.502.398.792.912.861 1.527.326 2.89.491 5.836.491 8.759 0 18.62-6.589 35.727-17.549 49.125h-120.364c-11.752-14.345-17.93-32.204-17.487-51.007.651-27.603 16.302-53.049 40.844-66.408 3.638-1.98 4.982-6.535 3.002-10.173-1.979-3.638-6.534-4.982-10.173-3.002-29.243 15.917-47.892 46.276-48.669 79.229-.435 18.447 4.469 36.138 14.023 51.361h-29.289c-6.952-15.254-10.715-31.985-10.715-49.125 0-37.925 18.367-73.873 49.132-96.16 3.354-2.43 4.104-7.119 1.674-10.474s-7.119-4.104-10.474-1.674c-34.647 25.1-55.332 65.588-55.332 108.307 0 17.006 3.289 33.655 9.421 49.125h-80.849c-12.389-12.963-22.541-24.853-30.02-34.104-7.035-8.703-7.035-21.337 0-30.04 34.819-43.074 127.429-143.253 235.113-143.253 54.002 0 110.461 24.832 167.81 73.806 3.151 2.69 7.885 2.318 10.574-.833 2.69-3.15 2.317-7.884-.833-10.574-60.14-51.358-119.877-77.399-177.551-77.399-114.149 0-210.605 104.075-246.778 148.821-11.452 14.167-11.452 34.732 0 48.899 5.647 6.986 12.765 15.418 21.189 24.675h-22.339c-4.142 0-7.5 3.358-7.5 7.5s3.358 7.5 7.5 7.5h36.502c47.579 48.589 124.353 109.146 211.427 109.146 45.295 0 92.36-16.34 139.887-48.566 3.428-2.325 4.323-6.988 1.999-10.417-2.324-3.428-6.988-4.323-10.417-1.999-44.997 30.511-89.229 45.981-131.469 45.981-75.853 0-144.223-49.706-190.187-94.146h72.976c9.416 17.213 22.607 32.395 38.878 44.183 1.33.963 2.869 1.427 4.394 1.427 2.323 0 4.613-1.076 6.08-3.101 2.43-3.354 1.681-8.043-1.674-10.474-12.134-8.79-22.329-19.712-30.24-32.035h32.825c.207.216.409.435.619.649 17.595 18.015 41.151 27.936 66.329 27.936 26.263 0 50.008-10.979 66.893-28.585h32.879c-7.911 12.323-18.106 23.245-30.24 32.035-3.354 2.43-4.104 7.119-1.674 10.474 1.467 2.025 3.757 3.101 6.08 3.101 1.525 0 3.064-.464 4.394-1.427 16.271-11.788 29.462-26.97 38.878-44.183h72.974c-10.147 9.801-21.345 19.816-33.477 29.519-3.235 2.587-3.76 7.307-1.173 10.542 1.481 1.852 3.662 2.816 5.862 2.816 1.643 0 3.297-.538 4.679-1.643 17.024-13.615 32.253-27.813 45.385-41.234h36.468c4.142 0 7.5-3.358 7.5-7.5s-3.358-7.5-7.5-7.5h-22.321c8.239-9.063 15.335-17.457 21.17-24.675 11.452-14.167 11.452-34.732 0-48.899-9.631-11.914-25.299-30.182-45.252-49.56-2.972-2.885-7.719-2.816-10.605.155-2.886 2.972-2.816 7.72.155 10.605 19.418 18.857 34.666 36.635 44.038 48.229 7.035 8.703 7.035 21.337 0 30.04-7.794 9.642-17.895 21.435-30.008 34.106zm-205.106 28.585c-15.944 0-31.108-4.753-43.932-13.585h87.766c-12.487 8.563-27.582 13.585-43.834 13.585z" data-original="#000000" class="active-path" data-old_color="#000000" fill="#2FCCE0"/><path d="m84.769 136.936c3.227-2.521 6.264-4.833 9.284-7.066 54.67-40.444 109.221-60.95 162.137-60.95s107.468 20.506 162.138 60.948c3.02 2.234 6.057 4.546 9.284 7.067 1.371 1.071 2.997 1.59 4.612 1.59 2.229 0 4.437-.99 5.916-2.883 2.55-3.264 1.971-7.978-1.293-10.527-3.332-2.603-6.471-4.992-9.597-7.305-57.309-42.394-114.862-63.89-171.06-63.89s-113.75 21.496-171.06 63.89c-3.126 2.313-6.265 4.703-9.597 7.305-3.264 2.55-3.843 7.263-1.293 10.527s7.262 3.845 10.529 1.294z" data-original="#000000" class="active-path" data-old_color="#000000" fill="#2FCCE0"/><path d="m427.612 377.445c-3.238 2.529-6.275 4.841-9.284 7.066-54.67 40.443-109.222 60.949-162.138 60.949s-107.468-20.506-162.139-60.949c-3.008-2.225-6.045-4.537-9.283-7.066-3.265-2.551-7.979-1.972-10.527 1.293-2.55 3.264-1.971 7.978 1.293 10.527 3.343 2.612 6.482 5.001 9.597 7.305 57.309 42.394 114.861 63.89 171.059 63.89s113.75-21.496 171.059-63.889c3.115-2.305 6.255-4.694 9.598-7.306 3.264-2.55 3.843-7.263 1.293-10.527-2.551-3.263-7.263-3.844-10.528-1.293z" data-original="#000000" class="active-path" data-old_color="#000000" fill="#2FCCE0"/><path d="m7.5 69.928c4.142 0 7.5-3.358 7.5-7.5v-45.512c0-.688.559-1.247 1.247-1.247h45.512c4.142 0 7.5-3.358 7.5-7.5s-3.358-7.5-7.5-7.5h-45.512c-8.959 0-16.247 7.289-16.247 16.247v45.512c0 4.142 3.358 7.5 7.5 7.5z" data-original="#000000" class="active-path" data-old_color="#000000" fill="#2FCCE0"/><path d="m496.134.669h-45.512c-4.142 0-7.5 3.358-7.5 7.5s3.358 7.5 7.5 7.5h45.512c.688 0 1.247.559 1.247 1.247v45.512c0 4.142 3.358 7.5 7.5 7.5s7.5-3.358 7.5-7.5v-45.512c0-8.958-7.288-16.247-16.247-16.247z" data-original="#000000" class="active-path" data-old_color="#000000" fill="#2FCCE0"/><path d="m61.759 496.711h-45.512c-.688 0-1.247-.559-1.247-1.247v-45.512c0-4.142-3.358-7.5-7.5-7.5s-7.5 3.358-7.5 7.5v45.512c0 8.958 7.288 16.247 16.247 16.247h45.512c4.142 0 7.5-3.358 7.5-7.5s-3.358-7.5-7.5-7.5z" data-original="#000000" class="active-path" data-old_color="#000000" fill="#2FCCE0"/><path d="m504.881 442.453c-4.142 0-7.5 3.358-7.5 7.5v45.512c0 .688-.559 1.247-1.247 1.247h-45.512c-4.142 0-7.5 3.358-7.5 7.5s3.358 7.5 7.5 7.5h45.512c8.958 0 16.247-7.288 16.247-16.247v-45.512c0-4.142-3.358-7.5-7.5-7.5z" data-original="#000000" class="active-path" data-old_color="#000000" fill="#2FCCE0"/></g></g> </svg>
