<svg xmlns="http://www.w3.org/2000/svg" width="29.393" height="29.392" viewBox="0 0 29.393 29.392">
  <path id="_036-facebook" data-name="036-facebook" d="M25.433,0H3.963A3.961,3.961,0,0,0,0,3.961v21.47a3.961,3.961,0,0,0,3.961,3.961H14.552l.018-10.5H11.841a.644.644,0,0,1-.644-.641l-.013-3.386a.644.644,0,0,1,.644-.646h2.724V10.944c0-3.8,2.319-5.863,5.705-5.863h2.779a.644.644,0,0,1,.644.644V8.579a.644.644,0,0,1-.644.644H21.331c-1.842,0-2.2.875-2.2,2.16v2.832h4.047a.644.644,0,0,1,.639.72l-.4,3.386a.644.644,0,0,1-.639.568H19.15l-.018,10.5h6.3a3.961,3.961,0,0,0,3.961-3.961V3.961A3.961,3.961,0,0,0,25.433,0Z" transform="translate(-0.002)" fill="#b7b7b7"/>
</svg>
