<svg xmlns="http://www.w3.org/2000/svg" id="_029-instagram" width="29.41" height="29.411" data-name="029-instagram" viewBox="0 0 29.41 29.411"><path id="Trazado_9890" fill="#b7b7b7" d="M20.649,0H8.762A8.772,8.772,0,0,0,0,8.762V20.649a8.772,8.772,0,0,0,8.762,8.762H20.649a8.772,8.772,0,0,0,8.762-8.762V8.762A8.772,8.772,0,0,0,20.649,0Zm5.8,20.649a5.8,5.8,0,0,1-5.8,5.8H8.762a5.8,5.8,0,0,1-5.8-5.8V8.762a5.8,5.8,0,0,1,5.8-5.8H20.649a5.8,5.8,0,0,1,5.8,5.8V20.649Z" data-name="Trazado 9890"/><path id="Trazado_9891" fill="#b7b7b7" d="M140.607,133a7.607,7.607,0,1,0,7.607,7.607A7.615,7.615,0,0,0,140.607,133Zm0,12.255a4.648,4.648,0,1,1,4.648-4.648A4.648,4.648,0,0,1,140.607,145.255Z" data-name="Trazado 9891" transform="translate(-125.901 -125.901)"/><circle id="Elipse_6" cx="1.823" cy="1.823" r="1.823" fill="#b7b7b7" data-name="Elipse 6" transform="translate(20.504 5.333)"/></svg>