<svg xmlns="http://www.w3.org/2000/svg" width="29.393" height="29.392" viewBox="0 0 29.393 29.392">
  <path id="_027-linkedin" data-name="027-linkedin" d="M26.733,0H2.659A2.659,2.659,0,0,0,0,2.659V26.733a2.659,2.659,0,0,0,2.659,2.659H26.733a2.659,2.659,0,0,0,2.659-2.659V2.659A2.659,2.659,0,0,0,26.733,0ZM9.1,25.379a.774.774,0,0,1-.774.774H5.028a.774.774,0,0,1-.774-.774V11.572a.774.774,0,0,1,.774-.774H8.321a.774.774,0,0,1,.774.774ZM6.675,9.5A3.129,3.129,0,1,1,9.8,6.368,3.129,3.129,0,0,1,6.675,9.5ZM26.307,25.441a.711.711,0,0,1-.711.711H22.062a.711.711,0,0,1-.711-.711V18.965c0-.966.283-4.233-2.525-4.233-2.178,0-2.62,2.236-2.709,3.24v7.469a.711.711,0,0,1-.711.711H11.987a.711.711,0,0,1-.711-.711V11.51a.711.711,0,0,1,.711-.711h3.418a.711.711,0,0,1,.711.711v1.2c.808-1.212,2.008-2.148,4.564-2.148,5.659,0,5.627,5.287,5.627,8.192v6.682Z" fill="#b7b7b7"/>
</svg>
